<svg width="85" height="85" viewBox="0 0 85 85" fill="none" xmlns="http://www.w3.org/2000/svg">
<path d="M24.7917 49.5869H31.8751V56.6702H24.7917V49.5869Z" fill="#3E3E3E"/>
<path d="M67.2917 7.08334H38.9583C37.0797 7.08334 35.278 7.82961 33.9497 9.158C32.6213 10.4864 31.875 12.2881 31.875 14.1667V35.4167H17.7083C13.8019 35.4167 10.625 38.5935 10.625 42.5V74.375C10.625 75.3143 10.9981 76.2151 11.6623 76.8793C12.3265 77.5435 13.2274 77.9167 14.1667 77.9167H70.8333C71.7726 77.9167 72.6735 77.5435 73.3377 76.8793C74.0019 76.2151 74.375 75.3143 74.375 74.375V14.1667C74.375 12.2881 73.6287 10.4864 72.3003 9.158C70.972 7.82961 69.1703 7.08334 67.2917 7.08334ZM17.7083 70.8333V42.5H38.9583V70.8333H17.7083ZM49.5833 28.3333H42.5V21.25H49.5833V28.3333ZM63.75 56.6667H56.6667V49.5833H63.75V56.6667ZM63.75 42.5H56.6667V35.4167H63.75V42.5ZM63.75 28.3333H56.6667V21.25H63.75V28.3333Z" fill="#3E3E3E"/>
</svg>
