<svg width="50" height="70" viewBox="0 0 50 70" fill="none" xmlns="http://www.w3.org/2000/svg">
<path fill-rule="evenodd" clip-rule="evenodd" d="M34.2813 21.7439C34.7186 21.1369 35.309 20.7954 35.9248 20.793C36.5406 20.7906 37.1323 21.1276 37.5721 21.7312C38.0118 22.3347 38.2642 23.1563 38.2747 24.0183C38.2852 24.8803 38.0529 25.7135 37.6281 26.3376L25.1531 48.1689C24.9387 48.4922 24.68 48.7516 24.3923 48.9317C24.1046 49.1118 23.794 49.2089 23.4789 49.217C23.1639 49.2252 22.8509 49.1443 22.5586 48.9793C22.2664 48.8142 22.0009 48.5683 21.7781 48.2564L13.5125 36.6801C13.2822 36.3797 13.0975 36.0175 12.9694 35.615C12.8413 35.2125 12.7725 34.778 12.7669 34.3374C12.7614 33.8968 12.8192 33.4592 12.9371 33.0506C13.055 32.6421 13.2305 32.2709 13.453 31.9593C13.6756 31.6478 13.9407 31.4021 14.2325 31.2371C14.5244 31.0721 14.8369 30.991 15.1516 30.9988C15.4663 31.0066 15.7767 31.103 16.0642 31.2823C16.3517 31.4617 16.6104 31.7202 16.825 32.0426L23.3688 41.1995L34.2219 21.8401C34.2412 21.8062 34.2621 21.7741 34.2844 21.7439H34.2813Z" fill="#30558A"/>
</svg>
