<svg width="50" height="50" viewBox="0 0 50 50" fill="none" xmlns="http://www.w3.org/2000/svg">
<circle cx="25" cy="25" r="25" fill="#F3F3F3"/>
<path d="M22.0672 35.6973H22.0672C25.0131 35.6973 27.3443 33.8505 28.381 31.5205L28.7568 33.2651C28.059 34.3934 27.087 35.3273 25.9309 35.9797C24.7518 36.645 23.421 36.9949 22.0671 36.9956C17.7294 36.9956 14.2 33.4662 14.2 29.1284C14.2 25.7662 16.3207 22.889 19.2954 21.7654L19.4499 23.1039C18.1024 23.6895 16.9886 24.7108 16.2889 26.006C15.5649 27.3459 15.3291 28.8957 15.6217 30.3904C15.9143 31.885 16.7171 33.2315 17.8929 34.1996C19.0686 35.1676 20.5442 35.697 22.0672 35.6973Z" fill="#30558A" stroke="black" stroke-width="0.4"/>
<path d="M24.2118 14.8092C24.2118 15.6979 23.4914 16.4184 22.6026 16.4184C21.7139 16.4184 20.9935 15.6979 20.9935 14.8092C20.9935 13.9205 21.7139 13.2 22.6026 13.2C23.4914 13.2 24.2118 13.9205 24.2118 14.8092Z" fill="#30558A" stroke="black" stroke-width="0.4"/>
<path d="M21.0151 18.5226L22.9253 18.3022L22.9024 18.1035L22.9253 18.3022C23.0654 18.286 23.2073 18.2976 23.3429 18.3363C23.4785 18.3749 23.6052 18.4399 23.7157 18.5276C23.8261 18.6152 23.9183 18.7237 23.9868 18.847C24.0554 18.9702 24.099 19.1057 24.1151 19.2458L24.1151 19.2458L24.3345 21.1472L24.355 21.3243H24.5332H30.3479V22.6227H24.7292H24.5048L24.5305 22.8456L24.8734 25.8177L24.8939 25.9948H25.0721H29.7795C30.0251 25.9959 30.2629 26.0806 30.4539 26.235C30.6448 26.3894 30.7775 26.6041 30.83 26.8439C30.8301 26.8441 30.8301 26.8442 30.8302 26.8444L31.8478 31.5933L31.8911 31.7956L32.0918 31.7454L34.4424 31.1578L34.7574 32.4174L30.9033 33.381L29.6326 27.4513L29.5987 27.2932H29.437H22.0273L21.0151 18.5226Z" fill="#30558A" stroke="black" stroke-width="0.4"/>
</svg>
