<svg width="50" height="50" viewBox="0 0 50 50" fill="none" xmlns="http://www.w3.org/2000/svg">
<circle cx="25" cy="25" r="25" fill="#F3F3F3"/>
<path d="M26.9645 30.6759C26.3417 30.9338 25.6741 31.0666 25 31.0666C23.6386 31.0666 22.3329 30.5258 21.3702 29.5631C20.8935 29.0864 20.5154 28.5205 20.2574 27.8977C20.025 27.3366 19.8942 26.7391 19.8706 26.1333H30.1295C30.1058 26.7391 29.975 27.3366 29.7426 27.8977C29.4846 28.5205 29.1065 29.0864 28.6298 29.5631C28.1532 30.0398 27.5873 30.4179 26.9645 30.6759Z" fill="#30558A" stroke="black" stroke-width="0.4"/>
<path d="M36.2559 24.1673C36.8157 24.1779 37.3601 24.3522 37.8218 24.6688C38.2836 24.9854 38.6424 25.4303 38.8541 25.9486C39.0657 26.467 39.1209 27.0359 39.0127 27.5852C38.9046 28.1344 38.638 28.6398 38.2458 29.0392C37.7212 29.5757 37.0062 29.8838 36.2559 29.8967L36.2555 29.8967L35.0038 29.9205L34.5137 31.0728C34.5136 31.0729 34.5136 31.0729 34.5136 31.0729C33.7201 32.9394 32.395 34.5313 30.7033 35.6503C29.0117 36.7692 27.0283 37.3659 25 37.3659C22.9718 37.3659 20.9884 36.7692 19.2967 35.6503C17.6051 34.5313 16.28 32.9394 15.4864 31.0729C15.4864 31.0729 15.4864 31.0729 15.4864 31.0728L14.9962 29.9205L13.7441 29.8967C13.7441 29.8967 13.7441 29.8967 13.7441 29.8967C12.9936 29.8826 12.2786 29.5746 11.7529 29.039C11.2271 28.5032 10.9325 27.7826 10.9325 27.032C10.9325 26.2814 11.2271 25.5607 11.7529 25.025C12.2786 24.4893 12.9936 24.1814 13.7441 24.1673C13.7441 24.1673 13.7441 24.1673 13.7441 24.1673L14.9962 24.1435L15.4864 22.9911C15.4864 22.9911 15.4864 22.9911 15.4864 22.9911C16.28 21.1246 17.6051 19.5328 19.2968 18.4138C20.9884 17.2949 22.9718 16.6982 25 16.6982C27.0283 16.6982 29.0117 17.2949 30.7033 18.4138C32.395 19.5328 33.7201 21.1246 34.5137 22.9911L35.0038 24.1435M36.2559 24.1673L36.2559 24.1673L36.2521 24.3673L36.2559 24.1673ZM36.2559 24.1673L35.0038 24.1435M35.0038 24.1435L34.8743 24.141L34.8705 24.341M35.0038 24.1435L35.0545 24.2627L34.8705 24.341M34.8705 24.341L34.3296 23.0694L34.8705 24.341ZM36.1087 22.3127L36.1594 22.4318L36.2889 22.4343C37.4931 22.4572 38.6403 22.9516 39.4839 23.8114C40.3274 24.6711 40.8 25.8275 40.8 27.032C40.8 28.2365 40.3274 29.3929 39.4839 30.2526C38.6403 31.1123 37.4931 31.6068 36.2889 31.6297L36.1593 31.6322L36.1086 31.7514C35.1818 33.9307 33.6345 35.7892 31.6593 37.0957C29.684 38.4021 27.3682 39.0987 25 39.0987C22.6318 39.0987 20.316 38.4021 18.3407 37.0957C16.3655 35.7892 14.8182 33.9307 13.8914 31.7514L13.8407 31.6322L13.7111 31.6297C12.5069 31.6068 11.3597 31.1123 10.5161 30.2526C9.67257 29.3929 9.2 28.2365 9.2 27.032C9.2 25.8275 9.67257 24.6711 10.5161 23.8114C11.3597 22.9516 12.5069 22.4572 13.7111 22.4343L13.8407 22.4318L13.8914 22.3126C14.8142 20.1422 16.3527 18.2898 18.3168 16.9841C20.2808 15.6784 22.5843 14.9768 24.9427 14.9659L25.053 14.9654L25.1114 14.8719L27.3591 11.2756L28.8289 12.1943L27.1512 14.8786L26.9968 15.1256L27.2828 15.181C29.2253 15.5566 31.0458 16.4033 32.5847 17.6467C34.1235 18.8902 35.3336 20.4924 36.1087 22.3127Z" fill="#30558A" stroke="black" stroke-width="0.4"/>
<path d="M21.6 22.84C21.6 23.3959 21.1945 23.8134 20.7334 23.8134C20.2722 23.8134 19.8667 23.3959 19.8667 22.84C19.8667 22.2841 20.2722 21.8667 20.7334 21.8667C21.1945 21.8667 21.6 22.2841 21.6 22.84Z" fill="#30558A" stroke="black" stroke-width="0.4"/>
<path d="M30.1333 22.84C30.1333 23.3959 29.7278 23.8134 29.2667 23.8134C28.8055 23.8134 28.4 23.3959 28.4 22.84C28.4 22.2841 28.8055 21.8667 29.2667 21.8667C29.7278 21.8667 30.1333 22.2841 30.1333 22.84Z" fill="#30558A" stroke="black" stroke-width="0.4"/>
</svg>
