<svg width="130" height="130" viewBox="0 0 130 130" fill="none" xmlns="http://www.w3.org/2000/svg">
<path d="M78.4591 28.3114C76.2044 28.3277 73.9659 28.4374 71.6016 29.0711C69.0259 29.7703 66.5819 30.886 64.3662 32.3739C61.2544 30.5458 58.24 29.0427 55.3516 28.6893C51.7644 28.2464 48.4331 28.4861 44.5616 28.5674C39.9709 28.6608 36.9769 31.0049 32.1181 32.8818C27.2634 34.7505 21.0112 36.5624 12.1875 36.5624H8.125V75.6639L10.4122 76.8055L17.8994 80.4902L44.5616 110.195L44.6875 110.321C47.7344 113.336 51.8456 114.083 55.4775 113.876C59.1134 113.673 62.5259 112.608 65.2519 110.959C71.2522 107.339 87.5956 95.9764 87.5956 95.9764L87.9775 95.7205L88.2334 95.4686C90.1672 93.5471 91.1381 91.203 91.7881 88.7411L107.4 80.868L119.08 76.9355L121.875 76.0418V36.5624H117.812C110.984 36.6091 104.212 35.3144 97.8819 32.7518C93.0231 30.8546 90.0738 28.5349 85.4344 28.4374C82.9563 28.3886 80.7056 28.2952 78.455 28.3114H78.4591ZM78.5809 36.4364C80.4091 36.4202 82.5216 36.5177 85.1866 36.5624C85.6131 36.5786 89.5172 38.2443 94.9609 40.373C99.5638 42.1808 105.958 43.7855 113.75 44.3055V70.2039L104.353 73.3808H104.102L103.846 73.5027L91.5362 79.7264C90.8828 77.8412 89.8453 76.112 88.4894 74.6483L88.2334 74.2664L70.9678 53.0683L68.4287 49.8914L65.2519 52.4305L54.3359 61.3193C50.6716 63.8583 47.7019 63.1271 44.6875 61.7011C43.8141 61.2868 43.8628 61.1608 43.1641 60.6855L61.7012 45.3211L61.9531 45.0693C67.4578 39.6093 70.8419 37.7202 73.7588 36.9443C75.2213 36.5461 76.7609 36.4527 78.585 36.4364H78.5809ZM50.2775 36.5624C51.633 36.5113 52.9903 36.5534 54.34 36.6883C55.4044 36.8143 56.6109 37.7202 57.6428 38.0858C57.2284 38.4677 56.9278 38.6871 56.4972 39.1014L56.2453 39.3574L34.0275 57.7605L30.5988 60.5555L33.6456 63.7283C33.6456 63.7283 36.5828 66.9052 41.1369 69.0624C45.6909 71.2196 52.7231 72.4424 59.0362 68.0468L59.2922 67.7908L67.1612 61.3193L82.1437 79.7264L82.2697 79.9824L82.3956 80.1043C85.0769 82.7571 85.0159 86.9293 82.3956 89.6308C82.3631 89.6593 82.4281 89.7243 82.3956 89.7527C82.3631 89.773 81.8269 90.0899 81.7619 90.1386L76.4278 82.8993L69.8262 87.7255L75.0344 94.7049C72.9219 96.1349 71.9712 96.8824 69.7003 98.3896L64.2444 91.0243L57.6387 95.8505L62.8469 102.83C62.3838 103.114 61.4331 103.752 61.0675 103.976C59.7837 104.751 57.3056 105.625 55.0997 105.751C53.0238 105.865 51.4353 105.385 50.6594 104.735L50.5334 104.609L23.3634 74.5224L22.8556 73.8846L16.25 70.5858V44.3055C24.0094 43.7977 30.4525 42.258 35.0391 40.4989C40.4666 38.4189 44.3422 36.7046 44.8134 36.6883L50.2734 36.5624H50.2775Z" fill="#4E4E4E"/>
<path d="M34 9L48.6211 22.6464" stroke="#4A4A4A" stroke-width="3"/>
<line x1="65.5" y1="3" x2="65.5" y2="23" stroke="#4A4A4A" stroke-width="3"/>
<line x1="97.9927" y1="10.1245" x2="82.9927" y2="23.3672" stroke="#4A4A4A" stroke-width="3"/>
</svg>
