<svg width="179" height="155" viewBox="0 0 179 155" fill="none" xmlns="http://www.w3.org/2000/svg">
<path d="M155.472 9.10304L150.985 4.47327L146.499 9.10304L142.024 4.47327L137.537 9.10304L133.062 4.47327L128.576 9.10304L124.089 4.47327L119.603 9.10304L115.128 4.47327L110.641 9.10304L106.155 4.47327L101.68 9.10304L97.1932 4.47327L92.7069 9.10304L88.2205 4.47327L83.7342 9.10304L79.2589 4.47327L74.7725 9.10304L70.2862 5.62512L70.408 138.535L150.897 138.67C166.361 138.67 164.178 104.74 164.478 99.3278L164.5 4.47327L155.472 9.10304Z" fill="url(#paint0_linear)"/>
<path opacity="0.2" d="M124.089 9.27079L126.194 11.4515C126.814 12.1001 127.678 12.458 128.576 12.458C129.473 12.458 130.326 12.0889 130.957 11.4515L133.062 9.27079L135.167 11.4515C135.787 12.1001 136.651 12.458 137.548 12.458C138.446 12.458 139.299 12.0889 139.93 11.4515L142.035 9.27079L144.139 11.4515C144.76 12.1001 145.624 12.458 146.521 12.458C147.418 12.458 148.271 12.0889 148.903 11.4515L151.007 9.27079L153.112 11.4515C153.608 11.9628 154.253 12.3006 154.952 12.4153C155.652 12.53 156.37 12.4156 157 12.0889L161.199 9.93059L161.188 99.2271C161.154 99.9764 161.154 101.028 161.154 102.459C161.154 107.245 161.165 116.169 159.548 123.606C157.864 131.367 154.962 135.304 150.93 135.304L73.7534 135.181L73.6426 12.2455C74.0193 12.3797 74.407 12.458 74.7947 12.458C75.6587 12.458 76.5228 12.1113 77.1763 11.4515L79.281 9.27079L81.3857 11.4515C82.0061 12.1001 82.8701 12.458 83.7674 12.458C84.6647 12.458 85.5176 12.0889 86.149 11.4515L88.2537 9.27079L90.3585 11.4515C90.9788 12.1001 91.8428 12.458 92.7401 12.458C93.6374 12.458 94.4903 12.0889 95.1218 11.4515L97.2265 9.27079L99.3312 11.4515C99.9515 12.1001 100.816 12.458 101.713 12.458C102.61 12.458 103.463 12.0889 104.094 11.4515L106.199 9.27079L108.304 11.4515C108.924 12.1001 109.788 12.458 110.686 12.458C111.583 12.458 112.436 12.0889 113.067 11.4515L115.172 9.27079L117.277 11.4515C117.897 12.1001 118.761 12.458 119.658 12.458C120.556 12.458 121.408 12.0889 122.04 11.4515L124.089 9.27079ZM164.5 4.47327L155.472 9.10304L150.985 4.47327L146.499 9.10304L142.024 4.47327L137.537 9.10304L133.062 4.47327L128.576 9.10304L124.089 4.47327L119.603 9.10304L115.128 4.47327L110.641 9.10304L106.155 4.47327L101.68 9.10304L97.1932 4.47327L92.7069 9.10304L88.2205 4.47327L83.7342 9.10304L79.2589 4.47327L74.7725 9.10304L70.2862 5.62512L70.408 138.535L150.897 138.67C166.361 138.67 164.178 104.74 164.478 99.3278L164.5 4.47327Z" fill="#424242"/>
<path d="M151.273 26.8174H79.2256" stroke="#8C8C8C" stroke-width="0.26575" stroke-miterlimit="10"/>
<path d="M129.938 42.1373H137.294V44.743H129.938V42.1373Z" fill="#757575"/>
<path d="M109.356 42.1373H127.202V44.743H109.356V42.1373Z" fill="#757575"/>
<path d="M140.041 42.1373H151.273V44.743H140.041V42.1373Z" fill="#757575"/>
<path d="M79.2256 42.1373H92.1862V44.743H79.2256V42.1373Z" fill="#757575"/>
<path d="M145.657 50.8938H151.273V53.2758H145.657V50.8938Z" fill="#757575"/>
<path d="M109.356 50.8938H135.798V53.2758H109.356V50.8938Z" fill="#757575"/>
<path d="M79.2256 50.8938H87.4562V53.2758H79.2256V50.8938Z" fill="#757575"/>
<path d="M109.5 58.4871H139.177V61.294H109.5V58.4871Z" fill="#757575"/>
<path d="M143.043 58.4871H151.273V61.294H143.043V58.4871Z" fill="#757575"/>
<path d="M79.2256 59.3934H93.3161V61.2274H79.2256V59.3934Z" fill="#757575"/>
<path d="M109.356 67.0535H151.661V69.6032H109.356V67.0535Z" fill="#757575"/>
<path d="M79.2256 67.0535H87.4562V69.6032H79.2256V67.0535Z" fill="#757575"/>
<path d="M137.803 75.9999H151.273V78.5384H137.803V75.9999Z" fill="#757575"/>
<path d="M124.698 75.9999H129.672V78.5384H124.698V75.9999Z" fill="#757575"/>
<path d="M109.356 75.9999H116.978V78.5384H109.356V75.9999Z" fill="#757575"/>
<path d="M79.2256 75.9999H91.8096V78.5384H79.2256V75.9999Z" fill="#757575"/>
<path d="M146.155 85.1254H151.273V87.4626H146.155V85.1254Z" fill="#757575"/>
<path d="M136.983 85.1254H143.408V87.4626H136.983V85.1254Z" fill="#757575"/>
<path d="M109.356 85.1254H128.864V87.4626H109.356V85.1254Z" fill="#757575"/>
<path d="M79.2256 85.1254H89.1732V87.4626H79.2256V85.1254Z" fill="#757575"/>
<path d="M109.356 94.038H120.644V96.8785H109.356V94.038Z" fill="#757575"/>
<path d="M128.033 94.038H135.798V96.8785H128.033V94.038Z" fill="#757575"/>
<path d="M143.187 94.038H151.273V96.8785H143.187V94.038Z" fill="#757575"/>
<path d="M79.2256 94.038H87.4562V96.8785H79.2256V94.038Z" fill="#757575"/>
<path d="M129.883 116.84V112.333C129.883 110.22 130.226 108.184 130.824 106.25H52.6509C52.0527 108.184 51.7093 110.22 51.7093 112.333V116.84C51.7093 128.806 62.0778 138.591 74.7504 138.591H148.083C148.903 138.591 149.711 138.546 150.498 138.468C138.955 137.316 129.883 128.023 129.883 116.84Z" fill="#9EACB4"/>
<path opacity="0.2" d="M126.715 109.594C126.604 110.5 126.548 111.417 126.548 112.322V116.829C126.548 124.065 129.75 130.629 134.945 135.225H74.7504C63.8723 135.225 55.0325 126.972 55.0325 116.829V112.322C55.0325 111.417 55.1101 110.5 55.2652 109.594H126.715ZM130.824 106.239H52.6509C52.0527 108.174 51.7093 110.209 51.7093 112.322V116.829C51.7093 128.795 62.0778 138.58 74.7504 138.58H148.083C148.903 138.58 149.711 138.535 150.498 138.457C138.955 137.305 129.872 128.023 129.872 116.829V112.322C129.883 110.22 130.215 108.185 130.824 106.239Z" fill="#424242"/>
<g clip-path="url(#clip0)" filter="url(#filter0_d)">
<g filter="url(#filter1_d)">
<path d="M63.665 99.755C63.665 99.0243 63.3847 98.3236 62.8859 97.8069C62.387 97.2903 61.7105 97 61.005 97L20.93 97C19.46 97 18.27 98.2325 18.27 99.755C18.27 100.444 18.48 101.024 18.83 101.495L24.255 108.419L11.585 114.436C10.64 114.908 10.08 115.886 10.08 116.937C10.08 117.336 10.08 117.735 10.36 118.134L14.84 128.139C15.47 129.516 17.08 130.169 18.375 129.444L31.08 123.39L32.655 132.126C32.8056 132.726 33.1218 133.268 33.565 133.685C34.685 134.664 36.33 134.519 37.345 133.25L63.07 101.568L63.035 101.531C63.442 101.035 63.6653 100.406 63.665 99.755ZM59.08 115.125H66.08L66.08 133.25H59.08L59.08 115.125ZM77.42 110.884L87.325 121.142L82.39 126.254L72.485 115.995L77.42 110.884ZM94.08 97V104.25H76.58V97H94.08ZM42.77 74.9963L52.675 85.255L47.74 90.3663L37.835 80.1075L42.77 74.9963ZM82.39 74.9963L87.325 80.1075L77.42 90.3663L72.485 85.255L82.39 74.9963ZM59.08 86.125V68H66.08V86.125H59.08Z" fill="#B5B5B5"/>
</g>
</g>
<defs>
<filter id="filter0_d" x="-4" y="68" width="92" height="95" filterUnits="userSpaceOnUse" color-interpolation-filters="sRGB">
<feFlood flood-opacity="0" result="BackgroundImageFix"/>
<feColorMatrix in="SourceAlpha" type="matrix" values="0 0 0 0 0 0 0 0 0 0 0 0 0 0 0 0 0 0 127 0"/>
<feOffset dy="4"/>
<feGaussianBlur stdDeviation="2"/>
<feColorMatrix type="matrix" values="0 0 0 0 0 0 0 0 0 0 0 0 0 0 0 0 0 0 0.25 0"/>
<feBlend mode="normal" in2="BackgroundImageFix" result="effect1_dropShadow"/>
<feBlend mode="normal" in="SourceGraphic" in2="effect1_dropShadow" result="shape"/>
</filter>
<filter id="filter1_d" x="6.07999" y="68" width="92" height="74.3243" filterUnits="userSpaceOnUse" color-interpolation-filters="sRGB">
<feFlood flood-opacity="0" result="BackgroundImageFix"/>
<feColorMatrix in="SourceAlpha" type="matrix" values="0 0 0 0 0 0 0 0 0 0 0 0 0 0 0 0 0 0 127 0"/>
<feOffset dy="4"/>
<feGaussianBlur stdDeviation="2"/>
<feColorMatrix type="matrix" values="0 0 0 0 0 0 0 0 0 0 0 0 0 0 0 0 0 0 0.25 0"/>
<feBlend mode="normal" in2="BackgroundImageFix" result="effect1_dropShadow"/>
<feBlend mode="normal" in="SourceGraphic" in2="effect1_dropShadow" result="shape"/>
</filter>
<linearGradient id="paint0_linear" x1="117.39" y1="133.07" x2="117.39" y2="6.03889" gradientUnits="userSpaceOnUse">
<stop stop-color="#D1D1D1"/>
<stop offset="0.068" stop-color="#DADADA"/>
<stop offset="0.214" stop-color="#E5E5E5"/>
<stop offset="0.421" stop-color="#ECECEC"/>
<stop offset="0.995" stop-color="#EEEEEE"/>
</linearGradient>
<clipPath id="clip0">
<rect width="87" height="84" fill="white" transform="translate(84 68) rotate(90)"/>
</clipPath>
</defs>
</svg>
