<svg width="50" height="50" viewBox="0 0 50 50" fill="none" xmlns="http://www.w3.org/2000/svg">
<circle cx="25" cy="25" r="25" fill="#F3F3F3"/>
<path d="M14.5143 24.9996L14.5143 25.0003C14.5181 27.6281 15.5077 30.1589 17.2874 32.0924C19.0672 34.0258 21.5075 35.2212 24.126 35.4421L24.3429 35.4604V35.2429V31.8571V31.7802L24.2913 31.7232L21.9711 29.1517L21.9713 29.1516L21.964 29.1443C21.8521 29.0324 21.7844 28.884 21.7732 28.7262C21.762 28.5686 21.8079 28.4123 21.9026 28.2858C21.9027 28.2857 21.9028 28.2855 21.9029 28.2854L24.3022 25.1208L24.42 24.9656L24.2678 24.8438L19.9821 21.4153L19.9273 21.3714H19.8571H15.3143H15.1736L15.126 21.5039C14.7236 22.6255 14.5167 23.8079 14.5143 24.9996ZM29.4687 34.0958L29.3165 34.5559L29.7489 34.337C31.2929 33.5552 32.6189 32.4026 33.6081 30.9825C34.5973 29.5624 35.2188 27.9191 35.4169 26.1998C35.615 24.4806 35.3836 22.739 34.7433 21.1311C34.1031 19.5232 33.074 18.0993 31.7483 16.9868L31.5229 16.7977L31.43 17.0768L31.0057 18.3505L31.1954 18.4137L31.0057 18.3505C30.9621 18.4813 30.8785 18.5951 30.7667 18.6758C30.6549 18.7564 30.5206 18.7999 30.3827 18.8H25.8571H25.7743L25.7157 18.8586L24.0014 20.5729L23.8446 20.7297L24.0167 20.8695L31.4002 26.8695L31.4001 26.8695L31.4035 26.8722C31.4999 26.9471 31.5734 27.0473 31.616 27.1616C31.6573 27.2723 31.6679 27.3921 31.6469 27.5082L29.4687 34.0958ZM18.4443 15.1887C20.3847 13.8921 22.6661 13.2 24.9999 13.2C28.1284 13.2036 31.1277 14.448 33.3399 16.6601C35.552 18.8723 36.7964 21.8717 36.8 25.0002C36.8 27.334 36.1079 29.6153 34.8113 31.5557C33.5147 33.4962 31.6718 35.0087 29.5157 35.9018C27.3595 36.7949 24.9869 37.0286 22.6979 36.5733C20.409 36.118 18.3064 34.9941 16.6561 33.3439C15.0059 31.6936 13.882 29.591 13.4267 27.3021C12.9714 25.0131 13.2051 22.6405 14.0982 20.4843C14.9913 18.3282 16.5038 16.4853 18.4443 15.1887Z" fill="#30558A" stroke="black" stroke-width="0.4"/>
</svg>
