<svg width="50" height="50" viewBox="0 0 50 50" fill="none" xmlns="http://www.w3.org/2000/svg">
<circle cx="25" cy="25" r="25" fill="#F3F3F3"/>
<path d="M34.2031 37.1857L34.0617 37.0443L33.9203 37.1857C32.8009 38.3051 31.1056 38.8823 28.7963 38.8823H15.6327C15.45 38.8823 15.2947 38.8179 15.1571 38.6803L15.0188 38.8186L15.1571 38.6803C15.0195 38.5427 14.9551 38.3874 14.9551 38.2047C14.9551 38.022 15.0195 37.8667 15.1571 37.7291L15.0188 37.5908L15.1571 37.7291C15.2947 37.5915 15.45 37.5271 15.6327 37.5271C15.8053 37.5271 15.9683 37.4469 16.1166 37.3298C16.2664 37.2116 16.4191 37.0417 16.5756 36.8284C16.8885 36.4017 17.1833 35.8667 17.4616 35.2267C17.7423 34.581 17.9789 33.8138 18.1729 32.9272C18.3677 32.0365 18.4654 31.1629 18.4654 30.3066C18.4654 29.8158 18.4042 29.3891 18.2753 29.032C18.1512 28.6883 17.9966 28.3873 17.8099 28.1318C17.6397 27.899 17.4691 27.643 17.2978 27.3637C17.1416 27.1087 17.0011 26.7139 16.8841 26.165C16.7691 25.6254 16.7103 24.9592 16.7103 24.1636C16.7103 23.7027 16.7682 23.3415 16.8746 23.0713C16.9862 22.788 17.1175 22.5896 17.2607 22.4615C17.4358 22.3048 17.6109 22.1435 17.7859 21.9777C17.9913 21.7831 18.1513 21.4992 18.2759 21.1447C18.4049 20.7775 18.4654 20.3187 18.4654 19.7757C18.4654 19.1598 18.3113 18.6612 17.9681 18.3179C17.6248 17.9747 17.1262 17.8206 16.5103 17.8206C15.7431 17.8206 14.9962 17.5277 14.266 16.9206C13.5122 16.294 13.2 15.7841 13.2 15.3879C13.2 15.0368 13.362 14.6883 13.7276 14.3397C14.099 13.9856 14.4406 13.8327 14.7551 13.8327C15.108 13.8327 15.4353 13.7281 15.7325 13.5231C16.0106 13.3313 16.2729 13.1021 16.5197 12.8364C16.7531 12.5851 17.0094 12.3332 17.2888 12.0808C17.5483 11.8464 17.9083 11.6383 18.3772 11.4614C18.8339 11.289 19.3803 11.2 20.0206 11.2C20.8666 11.2 21.5398 11.2993 22.0486 11.4891C22.5672 11.6824 22.9354 11.9263 23.1712 12.2109C23.4126 12.5023 23.6173 12.9218 23.7773 13.482C23.939 14.0478 24.051 14.6082 24.1137 15.1635C24.1785 15.737 24.2937 16.4644 24.4587 17.3444C24.6247 18.23 24.8371 19.0616 25.0963 19.839C25.455 20.9151 26.291 22.2674 27.584 23.8905C28.8701 25.5049 29.8246 26.5393 30.4381 26.9611L30.4381 26.9611L30.4408 26.9629C32.7181 28.4752 33.8617 30.7486 33.8617 33.8168C33.8617 34.803 34.439 35.6654 35.511 36.4083C36.5906 37.1565 37.8656 37.5271 39.3271 37.5271C39.7309 37.5271 40.1852 37.4645 40.6883 37.3423C40.4993 37.7644 40.1721 38.1075 39.696 38.3728C39.09 38.7104 38.384 38.8823 37.572 38.8823C37.0703 38.8823 36.581 38.7786 36.1025 38.5699C35.6062 38.3533 35.2567 38.1523 35.041 37.9697C34.8091 37.7735 34.53 37.5126 34.2031 37.1857ZM21.9757 30.3066L21.5791 30.2697C21.5244 30.5615 21.4514 30.9402 21.3601 31.4062C21.271 31.8606 21.0774 32.56 20.7761 33.5095C20.4762 34.4547 20.1705 35.0898 19.8687 35.4418L19.5857 35.772H20.0206H23.5309H23.7309V35.572C23.7309 34.7711 23.6378 34.0687 23.4472 33.4684C23.2617 32.8839 23.0507 32.4375 22.8051 32.1509C22.5962 31.9072 22.4029 31.6221 22.2259 31.2947C22.0588 30.9856 21.9757 30.6572 21.9757 30.3066Z" fill="#30558A" stroke="black" stroke-width="0.4"/>
</svg>
