<svg width="130" height="130" viewBox="0 0 130 130" fill="none" xmlns="http://www.w3.org/2000/svg">
<path d="M78 104.722C78 103.764 77.6195 102.846 76.9423 102.169C76.2651 101.492 75.3466 101.111 74.3889 101.111H52.7222C51.7645 101.111 50.846 101.492 50.1688 102.169C49.4915 102.846 49.1111 103.764 49.1111 104.722C49.1111 105.68 49.4915 106.598 50.1688 107.276C50.846 107.953 51.7645 108.333 52.7222 108.333H74.3889C75.3466 108.333 76.2651 107.953 76.9423 107.276C77.6195 106.598 78 105.68 78 104.722Z" fill="#F5D216"/>
<path d="M81.3944 86.6667H59.7278C58.7701 86.6667 57.8516 87.0471 57.1743 87.7244C56.4971 88.4016 56.1167 89.3201 56.1167 90.2778C56.1167 91.2355 56.4971 92.154 57.1743 92.8312C57.8516 93.5084 58.7701 93.8889 59.7278 93.8889H81.3944C82.3522 93.8889 83.2707 93.5084 83.9479 92.8312C84.6251 92.154 85.0056 91.2355 85.0056 90.2778C85.0056 89.3201 84.6251 88.4016 83.9479 87.7244C83.2707 87.0471 82.3522 86.6667 81.3944 86.6667Z" fill="#F5D216"/>
<path d="M79.4444 115.556H57.7778C56.82 115.556 55.9015 115.936 55.2243 116.613C54.5471 117.29 54.1667 118.209 54.1667 119.167C54.1667 120.124 54.5471 121.043 55.2243 121.72C55.9015 122.397 56.82 122.778 57.7778 122.778H79.4444C80.4022 122.778 81.3207 122.397 81.9979 121.72C82.6751 121.043 83.0556 120.124 83.0556 119.167C83.0556 118.209 82.6751 117.29 81.9979 116.613C81.3207 115.936 80.4022 115.556 79.4444 115.556Z" fill="#F5D216"/>
<path d="M118.083 115.556H92.8056C91.8478 115.556 90.9293 115.936 90.2521 116.613C89.5749 117.29 89.1945 118.209 89.1945 119.167C89.1945 120.124 89.5749 121.043 90.2521 121.72C90.9293 122.397 91.8478 122.778 92.8056 122.778H118.083C119.041 122.778 119.96 122.397 120.637 121.72C121.314 121.043 121.694 120.124 121.694 119.167C121.694 118.209 121.314 117.29 120.637 116.613C119.96 115.936 119.041 115.556 118.083 115.556Z" fill="#F5D216"/>
<path d="M121.694 101.111H96.4167C95.4589 101.111 94.5404 101.492 93.8632 102.169C93.186 102.846 92.8055 103.764 92.8055 104.722C92.8055 105.68 93.186 106.598 93.8632 107.276C94.5404 107.953 95.4589 108.333 96.4167 108.333H121.694C122.652 108.333 123.571 107.953 124.248 107.276C124.925 106.598 125.306 105.68 125.306 104.722C125.306 103.764 124.925 102.846 124.248 102.169C123.571 101.492 122.652 101.111 121.694 101.111Z" fill="#F5D216"/>
<path d="M121.839 93.8888C120.781 81.174 117.325 68.7743 111.656 57.3444C106.224 47.0157 98.3986 38.1376 88.8333 31.4527L97.5 12.35C97.7794 11.779 97.9032 11.1445 97.8588 10.5104C97.8144 9.87638 97.6034 9.26526 97.2472 8.73885C96.9185 8.27705 96.4857 7.89911 95.9838 7.63563C95.482 7.37214 94.9251 7.23051 94.3583 7.22218H35.3889C34.7818 7.22068 34.1842 7.37224 33.6512 7.66285C33.1182 7.95347 32.6671 8.37376 32.3396 8.88487C32.012 9.39599 31.8186 9.98143 31.7772 10.5871C31.7358 11.1927 31.8478 11.799 32.1028 12.35L40.95 31.525C31.4545 38.2161 23.6823 47.065 18.2722 57.3444C10.5083 71.7888 8.08888 89.4472 7.43888 101.689C7.33245 103.481 7.59836 105.276 8.21986 106.96C8.84136 108.644 9.80498 110.182 11.05 111.475C12.3585 112.746 13.9079 113.742 15.6071 114.406C17.3062 115.07 19.1209 115.387 20.9444 115.339H43.3333V108.333H20.6555C19.8383 108.331 19.03 108.163 18.2792 107.84C17.5283 107.518 16.8504 107.047 16.2861 106.456C15.721 105.869 15.2845 105.171 15.0047 104.406C14.7249 103.641 14.6079 102.827 14.6611 102.014C15.1667 92.5888 17.1528 74.6416 24.6278 60.6666C29.8972 50.6534 37.6893 42.1892 47.2333 36.1111H50.8444C48.3974 39.4963 46.1429 43.0167 44.0917 46.6555C42.0025 50.5275 40.2274 54.5608 38.7833 58.7166L43.7305 62.0388C45.1922 57.7271 46.9912 53.5373 49.1111 49.5083C51.7142 44.8235 54.6719 40.3447 57.9583 36.1111H61.5694C63.9919 41.9011 65.7017 47.964 66.6611 54.1666C67.4455 58.7712 67.8321 63.4347 67.8167 68.1055L73.5222 64.0972C73.3632 60.4655 72.9773 56.8473 72.3667 53.2638C71.3978 47.4073 69.8494 41.6615 67.7444 36.1111H70.5611L73.8472 28.8888H47.7028L41.0222 14.4444H88.725L79.6972 34.1972C81.2447 35.0261 82.7293 35.9675 84.1389 37.0138C92.9867 43.1181 100.243 51.2535 105.3 60.7388C110.365 71.1395 113.509 82.37 114.581 93.8888H121.839Z" fill="#5A5A5A"/>
</svg>
