<svg width="85" height="81" viewBox="0 0 85 81" fill="none" xmlns="http://www.w3.org/2000/svg">
<path d="M42.5 0C34.0943 0 25.8774 2.35882 18.8883 6.77817C11.8992 11.1975 6.45186 17.4789 3.23514 24.828C0.0184145 32.1771 -0.823227 40.2639 0.816644 48.0656C2.45652 55.8674 6.50425 63.0338 12.448 68.6586C18.3917 74.2833 25.9645 78.1138 34.2087 79.6657C42.4529 81.2176 50.9982 80.4211 58.764 77.377C66.5299 74.3329 73.1675 69.1779 77.8375 62.5639C82.5074 55.9499 85 48.1739 85 40.2193C85 29.5525 80.5223 19.3225 72.552 11.7799C64.5817 4.23737 53.7717 0 42.5 0ZM42.5 14.364C45.2018 14.364 47.843 15.1222 50.0895 16.5427C52.336 17.9632 54.0869 19.9822 55.1209 22.3445C56.1548 24.7067 56.4253 27.306 55.8982 29.8137C55.3711 32.3214 54.0701 34.6249 52.1596 36.4328C50.2491 38.2408 47.815 39.472 45.1651 39.9709C42.5152 40.4697 39.7685 40.2137 37.2723 39.2352C34.7761 38.2567 32.6426 36.5998 31.1415 34.4738C29.6405 32.3479 28.8393 29.8485 28.8393 27.2916C28.8353 25.5929 29.1859 23.9101 29.871 22.34C30.5561 20.7698 31.5622 19.3432 32.8315 18.142C34.1008 16.9408 35.6084 15.9887 37.2676 15.3404C38.9268 14.692 40.7049 14.3602 42.5 14.364ZM66.7857 65.8447C60.1284 71.5395 51.474 74.6925 42.5 74.6925C33.526 74.6925 24.8716 71.5395 18.2143 65.8447V64.1784C18.0993 60.245 19.629 56.4275 22.471 53.5551C25.313 50.6827 29.2378 48.9875 33.3929 48.8377H51.6071C55.7434 48.9948 59.6497 50.6803 62.4875 53.5323C65.3254 56.3844 66.8685 60.1756 66.7857 64.0923V65.8447Z" fill="#3E3E3E"/>
</svg>
