<svg width="98" height="34" viewBox="0 0 98 34" fill="none" xmlns="http://www.w3.org/2000/svg">
    <path d="M84.3334 0.771889H87.6623C93.1784 0.771889 97.6492 8.18843 97.6492 17.3368C97.6492 26.3224 93.3365 33.6366 87.9569 33.8941L87.6623 33.9016H84.3334C89.8494 33.9016 94.3202 26.4851 94.3202 17.3368C94.3202 8.18843 89.8494 0.771889 84.3334 0.771889ZM71.0176 17.3368C71.0176 8.18843 75.4884 0.771889 81.0044 0.771889C86.5205 0.771889 90.9913 8.18843 90.9913 17.3368C90.9913 26.4851 86.5205 33.9016 81.0044 33.9016C75.4884 33.9016 71.0176 26.4851 71.0176 17.3368Z" fill="#F5D216"/>
    <path d="M14.6474 33.3228C11.9304 33.3228 9.59006 32.7175 7.62632 31.507C5.68947 30.2696 4.19649 28.6152 3.14737 26.5439C2.09825 24.4725 1.57368 22.1725 1.57368 19.6439C1.57368 17.1152 2.1117 14.8152 3.18772 12.7439C4.26374 10.6725 5.78363 9.03158 7.74737 7.82105C9.73801 6.58362 12.0649 5.96491 14.7281 5.96491C17.6064 5.96491 20.0947 6.67778 22.193 8.10351C24.3181 9.50234 25.8784 11.3181 26.8737 13.5509H23.5649C22.7579 12.1251 21.6281 10.9953 20.1754 10.1614C18.7497 9.32748 17.0146 8.91052 14.9702 8.91052C12.8181 8.91052 10.962 9.39473 9.40176 10.3632C7.84152 11.3047 6.64445 12.5825 5.81053 14.1965C5.00351 15.8105 4.6 17.6263 4.6 19.6439C4.6 21.6345 5.00351 23.4503 5.81053 25.0912C6.61754 26.7053 7.78772 27.9965 9.32105 28.9649C10.8813 29.9064 12.7374 30.3772 14.8895 30.3772C16.5035 30.3772 18.0234 30.0275 19.4491 29.3281C20.9018 28.6287 22.0719 27.6199 22.9597 26.3018C23.8743 24.9836 24.3316 23.3965 24.3316 21.5403H14.5667V18.7965H27.1158V33H24.3316V28.2789C23.7667 29.1398 23.0404 29.9602 22.1526 30.7404C21.2649 31.4936 20.1889 32.1123 18.9246 32.5965C17.6871 33.0807 16.2614 33.3228 14.6474 33.3228ZM30.8546 9.43508V5.4807H34.123V9.43508H30.8546ZM30.9756 33V12.8246H34.0019V33H30.9756ZM43.9314 33L36.0226 12.8246H39.3314L45.7068 29.7719L52.0419 12.8246H55.3507L47.4823 33H43.9314ZM65.9425 33.3228C63.898 33.3228 62.1091 32.8655 60.5758 31.9509C59.0425 31.0094 57.8454 29.745 56.9846 28.1579C56.1507 26.5708 55.7337 24.8222 55.7337 22.9123C55.7337 20.9754 56.1372 19.2269 56.9442 17.6667C57.7512 16.0795 58.908 14.8287 60.4144 13.914C61.9208 12.9725 63.6963 12.5018 65.7407 12.5018C67.8121 12.5018 69.5875 12.9725 71.067 13.914C72.5735 14.8287 73.7302 16.0795 74.5372 17.6667C75.3442 19.2269 75.7477 20.9754 75.7477 22.9123V24.1228H58.8407C59.0021 25.3064 59.3787 26.3959 59.9705 27.3912C60.5893 28.3596 61.4097 29.1398 62.432 29.7316C63.4542 30.2965 64.6378 30.5789 65.9828 30.5789C67.4086 30.5789 68.6056 30.2696 69.5741 29.6509C70.5425 29.0053 71.2957 28.1848 71.8337 27.1895H75.1425C74.4431 28.9918 73.3267 30.4713 71.7934 31.6281C70.2869 32.7579 68.3366 33.3228 65.9425 33.3228ZM58.8811 21.2982H72.6004C72.3314 19.5766 71.6051 18.1374 70.4214 16.9807C69.2378 15.824 67.6776 15.2456 65.7407 15.2456C63.8039 15.2456 62.2436 15.824 61.06 16.9807C59.9033 18.1374 59.177 19.5766 58.8811 21.2982Z" fill="black"/>
</svg>