<svg width="50" height="50" viewBox="0 0 50 50" fill="none" xmlns="http://www.w3.org/2000/svg">
<circle cx="25" cy="25" r="25" fill="#F3F3F3"/>
<path d="M23.926 24.205C24.0276 24.1446 24.1264 24.1 24.2197 24.0758C24.3109 24.052 24.4118 24.0438 24.5069 24.0755C24.6108 24.11 24.6882 24.1861 24.7258 24.2884C24.7602 24.3821 24.7565 24.4841 24.7367 24.5789C24.6969 24.7684 24.5778 24.9984 24.3865 25.2551C24.1925 25.5154 23.9143 25.8164 23.5387 26.1486C22.0538 27.4625 21.0383 28.6623 20.3605 29.9809C19.71 31.2463 19.3643 32.6332 19.2244 34.3556H21.3333C25.3386 34.3556 28.9489 33.035 31.5587 30.275C34.1691 27.5144 35.8 23.2908 35.8 17.4444V15.2546C33.4533 15.8114 31.6694 15.8068 30.1745 15.6573C29.5664 15.5965 29.0049 15.5115 28.478 15.4317C28.3379 15.4105 28.2001 15.3897 28.0647 15.3697C27.4166 15.2745 26.8178 15.2 26.2222 15.2C19.5823 15.2 14.2 20.5823 14.2 27.2222C14.2 29.9281 14.3417 32.061 14.6198 33.6259L14.6265 33.6634L14.6189 33.7007C14.3521 35.0139 14.2116 36.4466 14.2007 38.0222H16.2461L16.2481 37.7684L16.2481 37.7666C16.3036 34.5365 16.9563 31.8955 18.2345 29.6836C19.5127 27.4716 21.4082 25.7032 23.926 24.205ZM23.926 24.205C23.926 24.205 23.9261 24.205 23.9261 24.205L24.0283 24.3769L23.926 24.205Z" fill="#30558A" stroke="black" stroke-width="0.4"/>
</svg>
