<svg width="50" height="50" viewBox="0 0 50 50" fill="none" xmlns="http://www.w3.org/2000/svg">
<circle cx="25" cy="25" r="25" fill="#F3F3F3"/>
<path d="M31 22C31 20.6739 30.4732 19.4021 29.5355 18.4645C28.5979 17.5268 27.3261 17 26 17H24C22.6739 17 21.4021 17.5268 20.4645 18.4645C19.5268 19.4021 19 20.6739 19 22V28C19 29.3261 19.5268 30.5979 20.4645 31.5355C21.4021 32.4732 22.6739 33 24 33H26C27.3261 33 28.5979 32.4732 29.5355 31.5355C30.4732 30.5979 31 29.3261 31 28V26H27" stroke="#F5D216" stroke-width="3" stroke-linecap="round" stroke-linejoin="round"/>
</svg>
