<svg width="394" height="263" viewBox="0 0 394 263" fill="none" xmlns="http://www.w3.org/2000/svg">
<circle cx="329" cy="198" r="65" fill="#30558A"/>
<g filter="url(#filter0_d)">
<path d="M291.97 202.646H303.146V206.914H306.05V200.336H291.97V202.646ZM295.16 191.118H303.058V192.702H295.16V191.118ZM300.528 196.64V194.968H305.94V187.158H303.058V188.94H295.16V187.158H292.278V194.968H297.624V196.64H289.946V198.95H308.272V196.64H300.528ZM317.576 190.964H321.756V188.566H310.404V190.964H314.628V192.086C314.628 195.54 312.978 199.258 309.59 200.776L311.24 203.086C313.616 202.008 315.244 199.786 316.146 197.146C317.048 199.588 318.654 201.568 321.008 202.58L322.592 200.292C319.204 198.884 317.576 195.386 317.576 192.086V190.964ZM323.626 186.63V206.892H326.53V186.63H323.626ZM341.005 195.034C338.805 195.496 336.803 195.628 333.195 195.65V190.546H339.377V188.236H330.313V197.982H332.007C336.495 197.982 338.805 197.872 341.291 197.322L341.005 195.034ZM335.329 199.742H332.425V206.54H346.219V204.23H335.329V199.742ZM345.493 192.152V186.63H342.589V201.282H345.493V194.528H348.177V192.152H345.493ZM355.633 192.35H358.735V190.018H355.633V187.29H352.883V190.018H349.715V192.35H352.883V192.768C352.883 195.892 351.849 199.214 348.967 200.908L350.595 203.086C352.421 202.03 353.609 200.226 354.291 198.114C355.017 200.05 356.183 201.656 357.965 202.602L359.527 200.446C356.667 198.928 355.633 195.826 355.633 192.768V192.35ZM359.879 194.286H357.569V196.64H359.879V205.968H362.585V186.96H359.879V194.286ZM363.971 186.608V206.87H366.721V186.608H363.971Z" fill="white"/>
</g>
<g clip-path="url(#clip0)">
<path d="M134.05 119.343L129.224 114.517L107.622 136.119L102.107 130.603L123.709 109.001L118.883 104.175L135.191 103.035L134.05 119.343Z" fill="#9E9E9E"/>
</g>
<g clip-path="url(#clip1)">
<path d="M119.024 133.732L123.85 138.558L145.452 116.956L150.968 122.471L129.366 144.073L134.192 148.899L117.884 150.04L119.024 133.732Z" fill="#9E9E9E"/>
</g>
<path d="M216.7 215.225V208.4L151.05 208.4V200.6L216.7 200.6V193.775L243.212 204.5L216.7 215.225Z" fill="#9E9E9E"/>
<g clip-path="url(#clip2)">
<path d="M275.134 134.321L279.607 131.189L261.555 105.408L266.667 101.829L284.719 127.61L289.191 124.478L289.453 139.811L275.134 134.321Z" fill="#9E9E9E"/>
</g>
<g clip-path="url(#clip3)">
<path d="M263.139 116.561L258.666 119.693L276.718 145.474L271.606 149.053L253.555 123.272L249.082 126.404L248.82 111.071L263.139 116.561Z" fill="#9E9E9E"/>
</g>
<circle cx="65" cy="198" r="65" fill="#30558A"/>
<g filter="url(#filter1_d)">
<path d="M37.068 188.72V191.03H43.822C43.404 195.518 41.16 198.686 35.99 201.172L37.508 203.46C44.702 199.984 46.792 194.924 46.792 188.72H37.068ZM49.894 186.608V206.87H52.82V186.608H49.894ZM69.0543 194.066H60.7163V191.976H69.0543V194.066ZM71.9143 187.4H69.0543V189.71H60.7163V187.4H57.8343V196.376H71.9143V187.4ZM74.0923 198.29H55.7443V200.6H63.4003V206.914H66.3043V200.6H74.0923V198.29ZM82.9786 190.964H87.0046V188.566H75.8726V190.964H80.0746V192.086C80.0746 195.43 78.4246 199.236 75.1026 200.776L76.7306 203.086C79.0406 201.986 80.6686 199.764 81.5706 197.124C82.4726 199.522 84.0566 201.546 86.3006 202.58L87.9066 200.292C84.5846 198.752 82.9786 195.166 82.9786 192.086V190.964ZM94.3526 194.352H91.4046V186.63H88.5006V206.892H91.4046V196.75H94.3526V194.352Z" fill="white"/>
</g>
<circle cx="198" cy="65" r="64.5" stroke="#A7A7A7"/>
<g filter="url(#filter2_d)">
<path d="M241.791 55.0625C240.867 53.5476 239.729 52.3182 238.438 51.519C240.519 51.6998 242.462 53.1631 243.937 55.5831C245.511 58.1633 246.5 61.7598 246.5 65.7587C246.5 69.6863 245.546 73.2259 244.021 75.7958C242.536 78.2976 240.557 79.8148 238.438 79.9982C239.729 79.1989 240.867 77.9697 241.791 76.455C243.475 73.6936 244.5 69.9106 244.5 65.7587C244.5 61.6068 243.475 57.8239 241.791 55.0625ZM223.5 65.7587C223.5 61.7598 224.489 58.1633 226.063 55.5831C227.641 52.9941 229.755 51.5 232 51.5C234.245 51.5 236.359 52.9941 237.937 55.5831C239.511 58.1633 240.5 61.7598 240.5 65.7587C240.5 69.7577 239.511 73.3541 237.937 75.9343C236.359 78.5233 234.245 80.0175 232 80.0175C229.755 80.0175 227.641 78.5233 226.063 75.9343C224.489 73.3541 223.5 69.7577 223.5 65.7587Z" fill="#F5D216" stroke="white"/>
<path d="M151.504 53.447C152.708 52.1283 154.17 51.0963 155.89 50.351C157.61 49.577 159.387 49.19 161.222 49.19C163.057 49.19 164.648 49.3907 165.995 49.792C167.342 50.1933 168.561 50.738 169.65 51.426C171.915 52.888 173.577 54.8373 174.638 57.274H171.112C170.252 55.726 169.048 54.522 167.5 53.662C165.981 52.7733 164.246 52.329 162.297 52.329C160.348 52.329 158.685 52.63 157.309 53.232C155.933 53.8053 154.772 54.608 153.826 55.64C151.877 57.7613 150.902 60.4703 150.902 63.767C150.902 67.0923 151.862 69.8013 153.783 71.894C155.818 74.1013 158.513 75.205 161.867 75.205C164.562 75.205 166.884 74.3737 168.833 72.711C170.897 70.9623 171.929 68.6547 171.929 65.788H161.523V62.864H174.896V78H171.929V72.969C170.295 75.4343 168.03 77.0827 165.135 77.914C164.074 78.2007 162.67 78.344 160.921 78.344C159.201 78.344 157.481 77.9713 155.761 77.226C154.041 76.452 152.579 75.4057 151.375 74.087C148.91 71.3923 147.677 67.9523 147.677 63.767C147.677 59.639 148.953 56.199 151.504 53.447ZM179.009 56.5H182.234V78H179.009V56.5ZM182.363 48.674V52.888H178.88V48.674H182.363ZM204.985 56.5L196.6 78H192.816L184.388 56.5H187.914L194.708 74.56L201.459 56.5H204.985ZM216.483 75.42C219.378 75.42 221.456 74.216 222.718 71.808H226.244C225.498 73.7573 224.309 75.334 222.675 76.538C221.069 77.742 218.991 78.344 216.44 78.344C213.2 78.344 210.563 77.269 208.528 75.119C206.55 73.0263 205.561 70.4033 205.561 67.25C205.561 64.068 206.507 61.445 208.399 59.381C210.405 57.231 213.014 56.156 216.225 56.156C219.435 56.156 222.044 57.231 224.051 59.381C225.943 61.445 226.889 64.068 226.889 67.25V68.54H208.872C209.101 70.518 209.889 72.152 211.237 73.442C212.613 74.7607 214.361 75.42 216.483 75.42ZM216.225 59.08C214.247 59.08 212.584 59.6963 211.237 60.929C209.975 62.1043 209.201 63.638 208.915 65.53H223.535C223.248 63.638 222.474 62.1043 221.213 60.929C219.865 59.6963 218.203 59.08 216.225 59.08Z" fill="black"/>
</g>
<defs>
<filter id="filter0_d" x="285.946" y="186.608" width="84.7748" height="28.306" filterUnits="userSpaceOnUse" color-interpolation-filters="sRGB">
<feFlood flood-opacity="0" result="BackgroundImageFix"/>
<feColorMatrix in="SourceAlpha" type="matrix" values="0 0 0 0 0 0 0 0 0 0 0 0 0 0 0 0 0 0 127 0"/>
<feOffset dy="4"/>
<feGaussianBlur stdDeviation="2"/>
<feColorMatrix type="matrix" values="0 0 0 0 0 0 0 0 0 0 0 0 0 0 0 0 0 0 0.25 0"/>
<feBlend mode="normal" in2="BackgroundImageFix" result="effect1_dropShadow"/>
<feBlend mode="normal" in="SourceGraphic" in2="effect1_dropShadow" result="shape"/>
</filter>
<filter id="filter1_d" x="31.99" y="186.608" width="66.3626" height="28.306" filterUnits="userSpaceOnUse" color-interpolation-filters="sRGB">
<feFlood flood-opacity="0" result="BackgroundImageFix"/>
<feColorMatrix in="SourceAlpha" type="matrix" values="0 0 0 0 0 0 0 0 0 0 0 0 0 0 0 0 0 0 127 0"/>
<feOffset dy="4"/>
<feGaussianBlur stdDeviation="2"/>
<feColorMatrix type="matrix" values="0 0 0 0 0 0 0 0 0 0 0 0 0 0 0 0 0 0 0.25 0"/>
<feBlend mode="normal" in2="BackgroundImageFix" result="effect1_dropShadow"/>
<feBlend mode="normal" in="SourceGraphic" in2="effect1_dropShadow" result="shape"/>
</filter>
<filter id="filter2_d" x="143.677" y="48.674" width="107.323" height="39.8435" filterUnits="userSpaceOnUse" color-interpolation-filters="sRGB">
<feFlood flood-opacity="0" result="BackgroundImageFix"/>
<feColorMatrix in="SourceAlpha" type="matrix" values="0 0 0 0 0 0 0 0 0 0 0 0 0 0 0 0 0 0 127 0"/>
<feOffset dy="4"/>
<feGaussianBlur stdDeviation="2"/>
<feColorMatrix type="matrix" values="0 0 0 0 0 0 0 0 0 0 0 0 0 0 0 0 0 0 0.25 0"/>
<feBlend mode="normal" in2="BackgroundImageFix" result="effect1_dropShadow"/>
<feBlend mode="normal" in="SourceGraphic" in2="effect1_dropShadow" result="shape"/>
</filter>
<clipPath id="clip0">
<rect width="47" height="39" fill="white" transform="translate(89.4142 121.234) rotate(-45)"/>
</clipPath>
<clipPath id="clip1">
<rect width="47" height="39" fill="white" transform="translate(163.66 131.841) rotate(135)"/>
</clipPath>
<clipPath id="clip2">
<rect width="48.4191" height="31.2" fill="white" transform="translate(275.501 92.6877) rotate(55)"/>
</clipPath>
<clipPath id="clip3">
<rect width="48.4191" height="31.2" fill="white" transform="translate(262.772 158.194) rotate(-125)"/>
</clipPath>
</defs>
</svg>
